HIERARCHY
ROOT Hips
{
	OFFSET -3.958830 18.904000 13.208200
	CHANNELS 6 Xposition Yposition Zposition Zrotation Yrotation Xrotation 
	JOINT LHipJoint
	{
		OFFSET 0.000000 0.000000 0.000000
		CHANNELS 3 Zrotation Yrotation Xrotation
		JOINT LeftUpLeg
		{
			OFFSET 1.800000 -1.400000 0.085000
			CHANNELS 3 Zrotation Yrotation Xrotation
			JOINT LeftLeg
			{
				OFFSET 2.215000 -6.000000 0.000000
				CHANNELS 3 Zrotation Yrotation Xrotation
				JOINT LeftFoot
				{
					OFFSET 2.500000 -6.900000 0.000000
					CHANNELS 3 Zrotation Yrotation Xrotation
					JOINT LeftToeBase
					{
						OFFSET 0.200000 -0.500000 1.950000
						CHANNELS 3 Zrotation Yrotation Xrotation
						End Site
						{
							OFFSET 0.000000 0.000000 0.000000
						}
					}
				}
			}
		}
	}
	JOINT RHipJoint
	{
		OFFSET 0.000000 0.000000 0.000000
		CHANNELS 3 Zrotation Yrotation Xrotation
		JOINT RightUpLeg
		{
			OFFSET -1.800000 -1.400000 0.085000
			CHANNELS 3 Zrotation Yrotation Xrotation
			JOINT RightLeg
			{
				OFFSET -2.215000 -6.000000 0.000000
				CHANNELS 3 Zrotation Yrotation Xrotation
				JOINT RightFoot
				{
					OFFSET -2.500000 -6.900000 0.000000
					CHANNELS 3 Zrotation Yrotation Xrotation
					JOINT RightToeBase
					{
						OFFSET -0.200000 -0.500000 1.950000
						CHANNELS 3 Zrotation Yrotation Xrotation
						End Site
						{
							OFFSET 0.000000 0.000000 0.000000
						}
					}
				}
			}
		}
	}
	JOINT LowerBack
	{
		OFFSET 0.000000 0.000000 0.000000
		CHANNELS 3 Zrotation Yrotation Xrotation
		JOINT Spine
		{
			OFFSET -0.087000 1.940000 -0.288900
			CHANNELS 3 Zrotation Yrotation Xrotation
			JOINT Spine1
			{
				OFFSET 0.000000 1.950000 0.060000
				CHANNELS 3 Zrotation Yrotation Xrotation
				JOINT Neck
				{
					OFFSET 0.000000 0.000000 0.000000
					CHANNELS 3 Zrotation Yrotation Xrotation
					JOINT Neck1
					{
						OFFSET 0.000000 1.600000 0.340000
						CHANNELS 3 Zrotation Yrotation Xrotation
						JOINT Head
						{
							OFFSET 0.000000 1.667000 -0.240000
							CHANNELS 3 Zrotation Yrotation Xrotation
							End Site
							{
								OFFSET 0.000000 0.000000 0.000000
							}
						}
					}
				}
				JOINT LeftShoulder
				{
					OFFSET 0.000000 0.000000 0.000000
					CHANNELS 3 Zrotation Yrotation Xrotation
					JOINT LeftArm
					{
						OFFSET 2.700000 1.550000 -0.730000
						CHANNELS 3 Zrotation Yrotation Xrotation
						JOINT LeftForeArm
						{
							OFFSET 5.450000 0.000000 0.000000
							CHANNELS 3 Zrotation Yrotation Xrotation
							JOINT LeftHand
							{
								OFFSET 3.450000 0.000000 0.000000
								CHANNELS 3 Zrotation Yrotation Xrotation
								JOINT LeftHandIndex1
								{
									OFFSET 0.750000 0.000000 0.000000
									CHANNELS 3 Zrotation Yrotation Xrotation
									End Site
									{
										OFFSET 0.000000 0.000000 0.000000
									}
								}
							}
						}
					}
				}
				JOINT RightShoulder
				{
					OFFSET 0.000000 0.000000 0.000000
					CHANNELS 3 Zrotation Yrotation Xrotation
					JOINT RightArm
					{
						OFFSET -2.700000 1.550000 -0.730000
						CHANNELS 3 Zrotation Yrotation Xrotation
						JOINT RightForeArm
						{
							OFFSET -5.450000 0.000000 0.000000
							CHANNELS 3 Zrotation Yrotation Xrotation
							JOINT RightHand
							{
								OFFSET -3.450000 0.000000 0.000000
								CHANNELS 3 Zrotation Yrotation Xrotation
								JOINT RightHandIndex1
								{
									OFFSET -0.750000 0.000000 0.000000
									CHANNELS 3 Zrotation Yrotation Xrotation
									End Site
									{
										OFFSET 0.000000 0.000000 0.000000
									}
								}
							}
						}
					}
				}
			}
		}
	}
}
MOTION
Frames: 12
Frame Time: 0.016667
0.834210 17.000950 -1.257400 -7.495291 -12.212330 14.429654 -15.166725 13.361351 3.764577 -2.743009 -3.272231 -17.516718 -6.716759 3.163922 3.073943 -1.017258 3.254413 3.903159 0.505360 -0.171960 0.456030 18.060918 -10.794024 3.009847 -12.139258 -0.060782 6.872065 7.047263 -6.215194 5.000285 -0.954058 -5.066669 2.953347 -0.090870 0.497890 0.491280 -3.081170 -2.542073 -8.410283 11.569502 4.302711 6.797154 -0.636193 5.596775 -10.799713 3.988341 -2.064574 -11.750945 -7.745267 3.775320 45.349568 -5.078420 2.876780 -12.782660 -17.389070 -3.555517 1.451340 3.746693 7.653709 1.028854 10.683557 -5.749677 -1.188093 -3.995804 2.368565 1.161310 0.203890 0.089760 0.369620 10.326087 7.687850 8.351426 -2.247346 -8.670421 -1.914846 -14.470654 6.236727 0.196352 2.023509 -1.139762 -0.420280 0.396120 -0.008980 -0.367520 
0.832210 16.998280 -1.261730 -7.268365 -12.327763 14.458218 -15.185449 13.329258 3.768004 -2.940449 -3.311102 -17.504129 -6.774340 3.155614 2.976772 -1.017703 3.254930 3.905853 0.498420 -0.180270 0.451720 18.047864 -10.791246 3.005681 -12.329789 -0.013261 6.895263 7.055524 -6.210937 4.873315 -0.952012 -5.081461 2.949078 -0.093870 0.504140 0.490340 -3.033549 -2.499275 -8.403639 10.930179 4.433367 6.733519 -0.353108 5.605113 -10.645946 3.963186 -2.032809 -11.751974 -7.624172 3.739803 45.071877 -5.090700 2.912870 -12.692050 -17.270497 -3.589522 1.498019 3.637972 7.609325 1.016250 10.714419 -5.699122 -1.191288 -4.002717 2.367704 1.158320 0.208140 0.084100 0.368510 10.340400 7.685143 8.369530 -2.192635 -8.736312 -1.915087 -14.434147 6.078237 0.202105 2.024488 -1.139124 -0.424150 0.398120 -0.004190 -0.367830 
0.830030 16.995750 -1.266160 -7.056495 -12.431010 14.474722 -15.202928 13.298653 3.770317 -3.110237 -3.343311 -17.483247 -6.849199 3.151947 2.885844 -1.016375 3.256962 3.907864 0.492400 -0.186820 0.449000 18.036026 -10.788592 3.001604 -12.496124 0.027599 6.917757 7.056045 -6.204747 4.757295 -0.950005 -5.095057 2.944635 -0.095740 0.508740 0.489470 -2.989640 -2.457851 -8.395917 10.331630 4.554479 6.669943 -0.090370 5.610929 -10.482024 3.939892 -1.989273 -11.753013 -7.483711 3.689183 44.812696 -5.125020 2.951330 -12.593400 -17.182307 -3.641712 1.547426 3.576082 7.591471 1.006234 10.727232 -5.661740 -1.191933 -4.007942 2.366754 1.154770 0.212160 0.079810 0.367190 10.373256 7.690951 8.388143 -2.163380 -8.801589 -1.911483 -14.391944 5.903678 0.207406 2.027318 -1.139302 -0.427420 0.398960 -0.001700 -0.367880 
0.827860 16.993420 -1.270660 -6.865035 -12.526272 14.482338 -15.218207 13.270789 3.771922 -3.264135 -3.371400 -17.455621 -6.906791 3.146277 2.797759 -1.015383 3.258333 3.910307 0.488360 -0.192260 0.448470 18.026025 -10.786402 2.997597 -12.643849 0.063925 6.933287 7.061722 -6.201541 4.659510 -0.948817 -5.107372 2.940632 -0.097900 0.512770 0.489230 -2.951754 -2.419606 -8.387706 9.795974 4.663761 6.611878 0.131557 5.617747 -10.317552 3.917478 -1.942909 -11.758739 -7.345097 3.638861 44.583897 -5.160840 2.988720 -12.518650 -17.112855 -3.707749 1.598335 3.553888 7.592116 1.000252 10.726718 -5.631136 -1.193083 -4.011558 2.366444 1.152600 0.215460 0.076320 0.366260 10.412546 7.706931 8.411045 -2.127707 -8.864037 -1.911322 -14.362609 5.714321 0.212641 2.030520 -1.139842 -0.430020 0.399350 -0.000400 -0.368140 
0.825760 16.991470 -1.274940 -6.686864 -12.608489 14.478732 -15.232451 13.245948 3.773522 -3.406358 -3.395370 -17.419265 -6.958241 3.140221 2.711019 -1.014708 3.259315 3.912221 0.485590 -0.196360 0.449370 18.016644 -10.784178 2.993682 -12.773664 0.095380 6.949752 7.064734 -6.199986 4.576500 -0.948329 -5.118639 2.936390 -0.100020 0.515560 0.489510 -2.916427 -2.386070 -8.380166 9.300710 4.761441 6.554386 0.333855 5.620531 -10.165357 3.899149 -1.888986 -11.768717 -7.203686 3.593519 44.421680 -5.206010 3.033700 -12.464420 -17.057572 -3.779344 1.650452 3.548329 7.613883 0.996054 10.720472 -5.616973 -1.194323 -4.013574 2.366507 1.151640 0.217960 0.074010 0.364990 10.452195 7.723572 8.432418 -2.090573 -8.898799 -1.917611 -14.365379 5.461788 0.220186 2.035375 -1.140345 -0.431940 0.398850 0.000130 -0.368550 
0.823810 16.989650 -1.279020 -6.530321 -12.681065 14.464085 -15.244456 13.224841 3.774642 -3.528861 -3.412156 -17.375102 -7.004600 3.136266 2.630659 -1.015717 3.261153 3.912891 0.481340 -0.201290 0.447760 18.008971 -10.782690 2.989444 -12.882545 0.121034 6.967968 7.057694 -6.199680 4.517569 -0.947205 -5.127770 2.933733 -0.102000 0.517930 0.487540 -2.886979 -2.357294 -8.372363 8.871372 4.841328 6.500656 0.502105 5.618395 -10.008820 3.882088 -1.843280 -11.787039 -7.087198 3.569438 44.309081 -5.244330 3.085510 -12.425150 -17.002958 -3.854547 1.708194 3.536525 7.662196 0.994207 10.720753 -5.609825 -1.195562 -4.015413 2.365628 1.151380 0.219650 0.070810 0.363260 10.480637 7.749401 8.455891 -2.032312 -8.907594 -1.932807 -14.383193 5.208362 0.229145 2.038792 -1.138901 -0.435210 0.400030 0.002920 -0.369840 
0.821950 16.987840 -1.282940 -6.387797 -12.748008 14.441477 -15.253963 13.205604 3.775544 -3.640373 -3.424977 -17.324626 -7.043625 3.132458 2.555555 -1.013628 3.261024 3.913361 0.478020 -0.204060 0.445980 18.003256 -10.783268 2.984868 -12.978808 0.143237 6.981659 7.040572 -6.198099 4.484317 -0.946135 -5.134575 2.931605 -0.102950 0.518140 0.485550 -2.863992 -2.327999 -8.364342 8.494044 4.908884 6.447275 0.632898 5.615487 -9.857930 3.859957 -1.800576 -11.806051 -6.981991 3.554207 44.231575 -5.251280 3.132670 -12.367830 -16.956881 -3.930869 1.763936 3.547155 7.722248 0.992454 10.721324 -5.628355 -1.193988 -4.015895 2.367016 1.148960 0.220440 0.068800 0.361940 10.517789 7.777489 8.477749 -1.964995 -8.903434 -1.948917 -14.420354 4.961572 0.238448 2.043405 -1.138710 -0.436280 0.399940 0.004410 -0.370460 
0.820060 16.986630 -1.286670 -6.254453 -12.812229 14.413470 -15.262661 13.190157 3.777744 -3.741247 -3.435457 -17.269882 -7.084477 3.128910 2.481378 -1.010675 3.260864 3.913524 0.476620 -0.204860 0.446290 17.997407 -10.784934 2.979462 -13.064219 0.163801 6.984714 7.012731 -6.196512 4.481663 -0.945121 -5.138693 2.929647 -0.103120 0.516960 0.484340 -2.841768 -2.303448 -8.358277 8.147329 4.968872 6.404194 0.752458 5.613811 -9.749868 3.837845 -1.765856 -11.819625 -6.905051 3.546420 44.213627 -5.250730 3.170910 -12.320100 -16.934814 -3.993798 1.806658 3.578354 7.777243 0.991658 10.722212 -5.649728 -1.191754 -4.014958 2.368359 1.147020 0.220520 0.068360 0.360620 10.576841 7.801988 8.490497 -1.930079 -8.889039 -1.962073 -14.467704 4.740263 0.246851 2.048712 -1.139175 -0.436270 0.398830 0.004000 -0.370840 
0.818320 16.985760 -1.289980 -6.140559 -12.868518 14.378177 -15.270460 13.178326 3.779937 -3.826325 -3.439869 -17.204276 -7.117684 3.124084 2.399988 -1.009327 3.261329 3.913162 0.475920 -0.204950 0.446950 17.991991 -10.786089 2.974268 -13.132830 0.179642 6.995290 6.979425 -6.196106 4.489090 -0.945077 -5.141893 2.927606 -0.103190 0.515540 0.482980 -2.821617 -2.285460 -8.353398 7.850064 5.016627 6.366411 0.862005 5.608268 -9.655909 3.818900 -1.740431 -11.830087 -6.857212 3.551038 44.246146 -5.259060 3.209410 -12.317910 -16.929010 -4.045644 1.843301 3.604557 7.843744 0.992533 10.729559 -5.676237 -1.191010 -4.013023 2.369264 1.146990 0.219680 0.068520 0.359290 10.641604 7.823786 8.495253 -1.915325 -8.848181 -1.980903 -14.547227 4.502871 0.256362 2.053752 -1.138998 -0.436670 0.398520 0.004060 -0.371500 
0.816810 16.985370 -1.293030 -6.035380 -12.907647 14.342794 -15.277516 13.169697 3.783237 -3.905256 -3.445971 -17.149997 -7.151315 3.120777 2.335819 -1.008363 3.261791 3.912701 0.476540 -0.204190 0.449390 17.986436 -10.786489 2.970649 -13.193569 0.193918 7.007429 6.958030 -6.196538 4.492955 -0.945678 -5.143752 2.926364 -0.102510 0.512730 0.481940 -2.802454 -2.273614 -8.352300 7.590204 5.050532 6.340287 0.948940 5.598941 -9.615229 3.807936 -1.714424 -11.841872 -6.822182 3.560470 44.356602 -5.274630 3.246750 -12.334110 -16.923144 -4.081393 1.870227 3.634739 7.906632 0.994672 10.725616 -5.714430 -1.189850 -4.010388 2.368085 1.148310 0.218350 0.070120 0.358000 10.687178 7.834890 8.494181 -1.905893 -8.787744 -1.996157 -14.575219 4.293686 0.266796 2.058259 -1.137316 -0.437050 0.398240 0.002810 -0.372910 
0.815200 16.985030 -1.295930 -5.938250 -12.942975 14.301944 -15.284454 13.161834 3.785666 -3.973669 -3.448669 -17.089441 -7.184447 3.117801 2.270574 -1.007716 3.264265 3.911727 0.477470 -0.203880 0.451610 17.981118 -10.786028 2.967520 -13.247113 0.206538 7.028941 6.936384 -6.197343 4.489176 -0.947151 -5.146339 2.925095 -0.102290 0.510890 0.481860 -2.783969 -2.263968 -8.350751 7.346791 5.080257 6.311995 1.038452 5.586088 -9.566676 3.798160 -1.695657 -11.851470 -6.800924 3.577798 44.467276 -5.287210 3.281100 -12.359300 -16.921499 -4.114715 1.897709 3.647411 7.971274 0.997082 10.746919 -5.750403 -1.190668 -4.008345 2.367692 1.150150 0.217210 0.071720 0.357510 10.733527 7.849444 8.489061 -1.933649 -8.715073 -2.005703 -14.538973 4.105210 0.276256 2.061549 -1.134737 -0.437290 0.398430 0.002230 -0.374190 
0.813650 16.984560 -1.298720 -5.849006 -12.970117 14.254622 -15.290489 13.154509 3.787185 -4.031519 -3.448612 -17.022806 -7.214747 3.114929 2.206230 -1.007764 3.268063 3.911211 0.479240 -0.203480 0.454980 17.976780 -10.785560 2.964404 -13.295908 0.217036 7.055119 6.915270 -6.199111 4.487985 -0.949153 -5.149537 2.923759 -0.101930 0.509660 0.481900 -2.768483 -2.255129 -8.348199 7.131658 5.101701 6.282868 1.116549 5.568959 -9.499647 3.785592 -1.678594 -11.857578 -6.780575 3.595512 44.561106 -5.298800 3.314680 -12.395870 -16.933061 -4.154564 1.925622 3.676303 8.041445 1.001847 10.756343 -5.780146 -1.192725 -4.006008 2.366894 1.152880 0.216200 0.073180 0.357440 10.793488 7.867217 8.482005 -1.964656 -8.636343 -2.020512 -14.542973 3.896427 0.285598 2.064835 -1.132957 -0.438140 0.399210 0.001080 -0.375790 
